<!--?xml version="1.0" encoding="iso-8859-1"?-->
<!-- Generator: Adobe Illustrator 22.1.0, SVG Export Plug-In . SVG Version: 6.00 Build 0)  -->
<svg version="1.1" id="_x34_" xmlns="http://www.w3.org/2000/svg" xmlns:xlink="http://www.w3.org/1999/xlink" x="0px" y="0px" viewBox="0 0 512 511.5" style="opacity: 1; width: 256px;" xml:space="preserve">
<style type="text/css">
	.st0{fill:#E0E0DF;}
	.st1{fill:#323333;}
	.st2{fill:#202020;}
	.st3{fill:#585959;}
	.st4{opacity:0.4;fill:#040000;}
	.st5{fill:#040000;}
	.st6{fill:#B9B9B9;}
	.st7{opacity:0.9;fill:#FFFFFF;}
</style>
<g>
	<path class="st0" d="M511.9,249.2c0-0.2,0-0.4,0-0.7c0-1.4-0.1-2.8-0.2-4.2c0-0.3,0-0.5,0-0.8c0-0.3,0-0.6,0-0.9
		c-0.1-1.1-0.1-2.3-0.2-3.4c-0.1-1.1-0.1-2.1-0.2-3.2c0-0.1,0-0.3,0-0.4c-0.7-8.5-1.7-16.9-3.2-25.2c-0.8-4.2-1.6-8.4-2.6-12.5
		c-0.2-1-0.5-2.1-0.7-3.1c-0.3-1-0.5-2.1-0.8-3.1c-1.1-4.4-2.4-8.8-3.8-13.1c-0.2-0.7-0.4-1.4-0.7-2c-0.3-0.9-0.6-1.7-0.9-2.6
		c-0.2-0.7-0.5-1.4-0.7-2.1c0-0.1-0.1-0.3-0.1-0.4c-0.4-1.3-0.9-2.6-1.4-3.9c-1.4-3.9-2.9-7.7-4.5-11.5c0,0,0-0.1-0.1-0.1
		c-1.8-4.4-3.8-8.6-5.9-12.9c-0.7-1.4-1.4-2.8-2.1-4.2c-0.2-0.5-0.5-1-0.8-1.5c-0.4-0.8-0.8-1.6-1.2-2.4c-0.4-0.8-0.9-1.5-1.3-2.3
		c-0.9-1.6-1.7-3.2-2.6-4.7c-0.5-0.8-1-1.7-1.4-2.5c-0.6-1-1.2-2-1.8-3c-0.3-0.5-0.6-1-0.9-1.5l14.7-14.7l8.2-71.1
		c1.3-11.7-8.5-21.6-20.2-20.2l-71.1,8.2l-14.7,14.7c-0.1-0.1-0.2-0.1-0.3-0.2c-0.2-0.1-0.3-0.2-0.5-0.3c-0.1-0.1-0.2-0.1-0.2-0.2
		c-0.2-0.1-0.3-0.2-0.5-0.3c-0.2-0.1-0.5-0.3-0.7-0.4c-0.8-0.5-1.6-0.9-2.3-1.4c-0.8-0.5-1.7-1-2.5-1.5c-0.1,0-0.1-0.1-0.2-0.1
		c-0.1-0.1-0.3-0.2-0.4-0.2c-0.3-0.2-0.7-0.4-1-0.6c-0.4-0.2-0.8-0.5-1.3-0.7c-0.5-0.3-1-0.5-1.5-0.8c-0.4-0.2-0.8-0.4-1.2-0.7
		c-0.7-0.4-1.4-0.7-2.1-1.1c-0.5-0.3-1-0.5-1.5-0.8c-0.6-0.3-1.1-0.6-1.7-0.9c-1.2-0.6-2.4-1.2-3.6-1.8c-0.4-0.2-0.8-0.4-1.2-0.6
		c-2.6-1.3-5.2-2.5-7.9-3.7c-1.4-0.6-2.9-1.3-4.3-1.9c0,0,0,0,0,0c-2.9-1.2-5.8-2.4-8.7-3.5c-1-0.4-1.9-0.7-2.9-1.1
		c-2-0.7-3.9-1.4-5.9-2.1c-0.5-0.2-0.9-0.3-1.4-0.5c-0.5-0.2-1.1-0.4-1.6-0.5c-0.8-0.3-1.7-0.5-2.5-0.8c-1.2-0.4-2.3-0.7-3.5-1.1
		c-0.7-0.2-1.4-0.4-2-0.6c-0.3-0.1-0.7-0.2-1-0.3c-0.2-0.1-0.5-0.1-0.7-0.2c-0.8-0.2-1.5-0.4-2.3-0.6c-0.8-0.2-1.7-0.4-2.6-0.7
		c-0.2,0-0.3-0.1-0.5-0.1c-0.2,0-0.4-0.1-0.6-0.1c-14.3-3.7-28.9-6.1-43.7-7.2c-0.4,0-0.8-0.1-1.2-0.1c-0.7,0-1.4-0.1-2.1-0.1
		c-1.8-0.1-3.6-0.2-5.5-0.3c-0.4,0-0.8,0-1.2-0.1c-3.2-0.1-6.4-0.2-9.6-0.2c-0.1,0-0.1,0-0.2,0c-3.3,0-6.5,0.1-9.7,0.2
		c-0.4,0-0.8,0-1.3,0.1c-0.3,0-0.7,0-1,0.1c-1.4,0.1-2.8,0.1-4.1,0.2c-0.1,0-0.1,0-0.2,0c0,0-0.1,0-0.1,0c-0.8,0.1-1.5,0.1-2.3,0.2
		c-0.3,0-0.6,0-0.9,0.1c-2.9,0.2-5.7,0.5-8.5,0.8c-0.4,0-0.8,0.1-1.1,0.1c0,0,0,0-0.1,0c-11.5,1.3-22.8,3.4-34,6.3
		c-0.2,0-0.3,0.1-0.5,0.1c-0.1,0-0.3,0.1-0.4,0.1c-0.9,0.2-1.8,0.5-2.7,0.7c-0.8,0.2-1.6,0.5-2.4,0.7c-0.2,0.1-0.4,0.1-0.6,0.2
		c-0.3,0.1-0.6,0.2-0.9,0.2c-0.7,0.2-1.5,0.4-2.2,0.6c-1,0.3-1.9,0.6-2.9,0.9c-1,0.3-2.1,0.6-3.1,1c-0.6,0.2-1.2,0.4-1.8,0.6
		c-0.4,0.1-0.8,0.3-1.2,0.4c-2,0.7-3.9,1.4-5.9,2.1c-1,0.4-2,0.7-2.9,1.1c-2.9,1.1-5.8,2.3-8.7,3.5c0,0,0,0,0,0
		c-0.4,0.2-0.9,0.4-1.3,0.6c-1,0.4-2,0.9-3,1.3c-1.4,0.6-2.8,1.3-4.2,1.9c0,0-0.1,0-0.1,0.1c-1.3,0.6-2.6,1.2-3.9,1.9
		c-0.2,0.1-0.4,0.2-0.6,0.3c-1.2,0.6-2.5,1.2-3.7,1.8c-0.2,0.1-0.3,0.2-0.5,0.3c-0.2,0.1-0.3,0.2-0.5,0.3c-0.4,0.2-0.7,0.4-1.1,0.6
		c-0.5,0.3-1,0.5-1.6,0.8c-0.3,0.1-0.5,0.3-0.8,0.4c-0.3,0.1-0.5,0.3-0.8,0.4c-2.1,1.1-4.2,2.3-6.3,3.5c-0.7,0.4-1.3,0.8-2,1.2
		c-1.2,0.7-2.5,1.5-3.7,2.2c-0.1,0-0.1,0.1-0.2,0.1c-0.2,0.2-0.5,0.3-0.7,0.4l-14.7-14.7L36,15.3c-11.7-1.4-21.6,8.5-20.2,20.2
		l8.2,71.1l14.7,14.7c0,0,0,0,0,0c-0.3,0.5-0.6,0.9-0.9,1.4c-2.2,3.6-4.3,7.2-6.3,10.9c0,0.1-0.1,0.1-0.1,0.2
		c-0.4,0.7-0.8,1.4-1.1,2.1c-0.4,0.8-0.8,1.5-1.2,2.3c-0.1,0.3-0.3,0.5-0.4,0.8c-0.1,0.1-0.1,0.2-0.2,0.3c-0.5,1.1-1.1,2.1-1.6,3.2
		c0,0,0,0,0,0c-0.2,0.4-0.4,0.8-0.6,1.3c-0.8,1.6-1.5,3.2-2.2,4.8c-0.4,1-0.9,1.9-1.4,2.9c-0.1,0.1-0.1,0.2-0.1,0.3
		c-0.6,1.4-1.2,2.8-1.8,4.2c-0.3,0.8-0.7,1.6-1,2.4c-0.1,0.3-0.3,0.7-0.4,1c-0.1,0.3-0.2,0.6-0.4,0.9c-0.6,1.5-1.2,2.9-1.7,4.4
		c-0.4,1-0.7,1.9-1.1,2.9c-0.7,2-1.4,3.9-2.1,5.9c-0.2,0.6-0.4,1.3-0.6,1.9c-0.1,0.4-0.2,0.7-0.4,1.1c-0.1,0.4-0.2,0.7-0.4,1.1
		c-0.1,0.3-0.2,0.6-0.3,0.9c-1,3.1-1.9,6.3-2.7,9.5c-0.3,1.2-0.7,2.4-1,3.6c-0.3,1-0.5,2-0.8,3.1c-0.2,0.7-0.3,1.3-0.5,2
		c-0.1,0.4-0.2,0.7-0.3,1.1c-0.9,4.1-1.8,8.3-2.6,12.5c0,0.3-0.1,0.5-0.1,0.8c-1.4,8.2-2.5,16.5-3.1,24.8c-0.2,2.2-0.3,4.4-0.4,6.6
		c0,0.4,0,0.8-0.1,1.2c0,0.2,0,0.3,0,0.5c0,0.7-0.1,1.4-0.1,2.2c0,0.9-0.1,1.8-0.1,2.8c0,0.7,0,1.5,0,2.3c0,1.4-0.1,2.9-0.1,4.3
		c0,1.5,0,3,0.1,4.4c0,0.7,0,1.4,0,2.2c0,1.7,0.1,3.3,0.2,5c0,0.5,0,1.1,0.1,1.6c0.1,2.2,0.2,4.4,0.4,6.6c0,0.1,0,0.3,0,0.4
		c0.6,8.2,1.7,16.4,3.1,24.4c0,0.2,0.1,0.5,0.1,0.7c0.2,1,0.4,2.1,0.6,3.1c0.1,0.3,0.1,0.6,0.2,1c0.1,0.7,0.3,1.4,0.4,2.2
		c0.2,0.8,0.4,1.7,0.5,2.5c0,0.2,0.1,0.4,0.1,0.6c0.2,1,0.5,2.1,0.7,3.1c0.1,0.5,0.2,1,0.4,1.5c0.1,0.5,0.2,1,0.4,1.5
		c1.2,5,2.6,9.9,4.1,14.7c0.1,0.3,0.2,0.6,0.3,0.9c0.1,0.5,0.3,0.9,0.4,1.4c0.4,1.3,0.9,2.7,1.3,4c0.1,0.2,0.1,0.3,0.2,0.5
		c0.1,0.3,0.2,0.7,0.3,1c0.2,0.6,0.4,1.2,0.6,1.8c0.7,1.9,1.4,3.8,2.1,5.6c0.5,1.4,1.1,2.8,1.6,4.2c0.2,0.6,0.5,1.2,0.7,1.8
		c0,0,0,0.1,0,0.1c0.1,0.2,0.1,0.3,0.2,0.5c0.3,0.8,0.7,1.6,1,2.4c0,0,0,0.1,0,0.1c0.6,1.4,1.2,2.8,1.8,4.2c0.4,1,0.9,1.9,1.3,2.9
		c0.2,0.4,0.4,0.9,0.6,1.3c0,0,0,0,0,0c0,0,0,0.1,0,0.1c0.6,1.3,1.2,2.6,1.9,3.9c0,0,0,0,0,0c0.1,0.2,0.2,0.4,0.3,0.6
		c0.5,0.9,0.9,1.9,1.4,2.8c0.2,0.3,0.3,0.6,0.5,0.9c0.2,0.3,0.3,0.7,0.5,1c0.1,0.1,0.1,0.3,0.2,0.4c0.4,0.7,0.7,1.4,1.1,2.2
		c0.2,0.4,0.5,0.9,0.7,1.3c0.1,0.1,0.1,0.2,0.2,0.3c0.5,1,1.1,2,1.6,3c0.1,0.1,0.2,0.3,0.2,0.4c0.4,0.8,0.9,1.5,1.3,2.3
		c0.4,0.7,0.8,1.4,1.2,2.1c0.1,0.2,0.2,0.4,0.3,0.6c0.2,0.4,0.5,0.8,0.7,1.2c0.3,0.5,0.6,1,0.9,1.5c0.1,0.1,0.1,0.3,0.2,0.4
		c0.2,0.2,0.3,0.5,0.5,0.7c0.1,0.2,0.3,0.5,0.5,0.7l-14.7,14.7L15.7,476c-1.4,11.7,8.5,21.6,20.2,20.2l71.1-8.2l14.7-14.7
		c0.2,0.1,0.4,0.3,0.6,0.4c0.3,0.2,0.6,0.3,0.8,0.5c1.3,0.8,2.7,1.6,4,2.4c1.3,0.8,2.7,1.6,4.1,2.3c0.1,0.1,0.2,0.1,0.3,0.2
		c0.7,0.4,1.4,0.8,2.1,1.2c0.6,0.3,1.1,0.6,1.7,0.9c5.7,3,11.5,5.8,17.3,8.4c0.9,0.4,1.8,0.8,2.8,1.2c0.4,0.2,0.7,0.3,1.1,0.5
		c5.8,2.4,11.6,4.7,17.6,6.7c0.1,0,0.3,0.1,0.4,0.1c0.5,0.2,1,0.3,1.5,0.5c0.5,0.2,1,0.3,1.5,0.5c0.7,0.2,1.4,0.5,2.2,0.7
		c0.3,0.1,0.6,0.2,0.9,0.3c3.1,1,6.3,1.8,9.5,2.7c0.7,0.2,1.4,0.4,2.1,0.6c0.3,0.1,0.7,0.2,1,0.3c0.7,0.2,1.4,0.3,2,0.5
		c0.1,0,0.2,0,0.3,0.1c0.9,0.2,1.8,0.4,2.8,0.7c2.1,0.5,4.1,0.9,6.2,1.4c1,0.2,2.1,0.4,3.1,0.6c0.5,0.1,1,0.2,1.5,0.3
		c0.6,0.1,1.1,0.2,1.7,0.3c1,0.2,2.1,0.4,3.2,0.5c0.5,0.1,1,0.2,1.5,0.2c0.6,0.1,1.1,0.2,1.7,0.3c0.9,0.1,1.9,0.3,2.8,0.4
		c7.6,1.1,15.2,1.8,23,2.2c0,0,0.1,0,0.1,0c0.5,0,1,0,1.5,0.1c1.7,0.1,3.3,0.1,5,0.2c1.1,0,2.2,0,3.4,0c1.1,0,2.2,0,3.2,0
		c1.1,0,2.3,0,3.4,0c1.1,0,2.2,0,3.2,0c0.5,0,1,0,1.5-0.1c1.1,0,2.3-0.1,3.4-0.1c0.6,0,1.1-0.1,1.7-0.1c7.8-0.4,15.4-1.1,23-2.2
		c0.9-0.1,1.9-0.3,2.8-0.4c1.3-0.2,2.6-0.4,3.9-0.6c0.8-0.1,1.6-0.3,2.4-0.4c0.5-0.1,1-0.2,1.5-0.3c0.5-0.1,1.1-0.2,1.6-0.3
		c1-0.2,2.1-0.4,3.1-0.6c2.1-0.4,4.1-0.9,6.2-1.4c1-0.2,2.1-0.5,3.1-0.7c1-0.3,2.1-0.5,3.1-0.8c3.9-1,7.8-2.1,11.6-3.3
		c0.3-0.1,0.6-0.2,0.9-0.3c0.7-0.2,1.4-0.4,2.1-0.7c0.5-0.2,1-0.3,1.4-0.5c0.5-0.2,1.1-0.3,1.6-0.5c0.2-0.1,0.3-0.1,0.5-0.2
		c5.9-2,11.7-4.2,17.5-6.6c0.3-0.1,0.6-0.3,0.9-0.4c1-0.4,1.9-0.9,2.9-1.3c5.8-2.6,11.5-5.3,17.1-8.3c1.5-0.8,3-1.6,4.4-2.4
		c1.3-0.7,2.5-1.4,3.8-2.1c0.2-0.1,0.4-0.2,0.6-0.3c1.3-0.7,2.5-1.5,3.8-2.3c0.5-0.3,1-0.6,1.5-0.9c0,0,0,0,0,0l14.7,14.7l71.1,8.2
		c11.7,1.4,21.6-8.5,20.2-20.2l-8.2-71.1l-14.7-14.7c0.2-0.2,0.3-0.5,0.5-0.7c0.2-0.2,0.3-0.5,0.5-0.7c0.1-0.1,0.2-0.3,0.2-0.4
		c0.6-1,1.2-2,1.8-2.9c0.1-0.1,0.2-0.3,0.2-0.4c0.3-0.6,0.7-1.2,1-1.8c0.1-0.1,0.2-0.3,0.2-0.4c0.8-1.4,1.6-2.8,2.4-4.2
		c0.4-0.8,0.9-1.6,1.3-2.4c0.4-0.7,0.7-1.3,1-2c0.3-0.6,0.6-1.2,1-1.8c0,0,0,0,0,0c0-0.1,0.1-0.1,0.1-0.1c0.7-1.3,1.3-2.7,2-4
		c0.6-1.3,1.2-2.6,1.9-3.9c0.4-0.8,0.8-1.6,1.2-2.4c0,0,0-0.1,0-0.1c0.4-0.8,0.6-1.6,1-2.4c0.6-1.4,1.3-2.7,1.8-4.1
		c1.7-3.9,3.2-7.9,4.7-11.9c0,0,0,0,0,0c0.4-1,0.7-2,1.1-3c0.2-0.4,0.3-0.9,0.4-1.3c0.2-0.6,0.4-1.1,0.6-1.7
		c0.4-1.3,0.9-2.6,1.3-3.8c0.2-0.7,0.5-1.5,0.7-2.2c1.5-4.8,2.9-9.7,4.1-14.7c0.2-1,0.5-2.1,0.7-3.1c0.2-0.8,0.4-1.6,0.5-2.4
		c0-0.2,0.1-0.4,0.1-0.7c0-0.2,0.1-0.4,0.1-0.6c0.2-0.8,0.4-1.7,0.5-2.5c0.1-0.5,0.2-1,0.3-1.6s0.2-1,0.3-1.6
		c0.1-0.4,0.1-0.8,0.2-1.2c0.1-0.6,0.2-1.3,0.4-1.9c1.5-8.2,2.5-16.5,3.2-24.8c0-0.2,0.1-0.5,0.1-0.7c0.1-1,0.1-2,0.2-2.9
		c0.1-1.2,0.2-2.4,0.2-3.6c0-0.3,0-0.6,0-0.8c0-0.2,0-0.5,0-0.7c0.1-1.7,0.1-3.3,0.2-5c0,0,0-0.1,0-0.1c0.1-2.1,0.1-4.3,0.1-6.5
		C512,253.6,512,251.4,511.9,249.2z M72.2,464.5c-6.8,6.8-17.9,6.8-24.7,0c-6.8-6.8-6.8-17.9,0-24.7c6.8-6.8,17.9-6.8,24.7,0
		C79,446.7,79,457.7,72.2,464.5z M72.2,71.7c-6.8,6.8-17.9,6.8-24.7,0c-6.8-6.8-6.8-17.9,0-24.7c6.8-6.8,17.9-6.8,24.7,0
		C79,53.8,79,64.9,72.2,71.7z M465,464.5c-6.8,6.8-17.9,6.8-24.7,0c-6.8-6.8-6.8-17.9,0-24.7c6.8-6.8,17.9-6.8,24.7,0
		C471.8,446.7,471.8,457.7,465,464.5z M465,71.7c-6.8,6.8-17.9,6.8-24.7,0c-6.8-6.8-6.8-17.9,0-24.7c6.8-6.8,17.9-6.8,24.7,0
		C471.8,53.8,471.8,64.9,465,71.7z"></path>
	<g>
		<path class="st1" d="M320.2,82.7c-36.9,24.6-52.5,57.9-58.4,87.9c-2-0.2-4-0.2-6.1-0.2c-2.2,0-4.5,0.1-6.7,0.3
			c-6.6,0.5-12.9,1.7-18.9,3.6C219,101.8,263.6,58.4,263.6,58.4c11.8,0,23.7,1.9,35.2,5.5c7.1,2.2,14.2,5.2,20.9,8.8
			C323.6,74.8,323.9,80.3,320.2,82.7z"></path>
		<path class="st1" d="M247.9,450.5c-11.7,0-23.7-1.8-35.2-5.5c-7.2-2.2-14.1-5.2-20.9-8.8c-3.9-2.1-4.2-7.5-0.6-10
			c35.9-23.9,51.6-56,57.9-85.4c2.2,0.2,4.4,0.3,6.6,0.3c2.2,0,4.3-0.1,6.5-0.2c6.7-0.5,13.3-1.8,19.4-3.8
			C291.5,408.2,247.9,450.5,247.9,450.5z"></path>
		<path class="st1" d="M225.8,73.5c-19.6,39.6-16.5,76.3-6.6,105.2c-3.9,1.8-7.7,3.9-11.2,6.3c-5.4,3.7-10.2,7.8-14.6,12.5
			c-45.8-57.2-28.8-116.8-28.8-116.8c10.2-5.9,21.4-10.2,33.3-12.9c7.3-1.6,14.9-2.6,22.5-2.8C224.7,65,227.7,69.5,225.8,73.5z"></path>
		<path class="st1" d="M347,428.2c-10.2,5.9-21.5,10.2-33.3,12.8c-7.4,1.7-14.9,2.6-22.5,2.9c-4.4,0.1-7.4-4.5-5.4-8.4
			c19.1-38.7,16.7-74.4,7.4-102.9c4-1.9,7.8-4.2,11.4-6.7c5.4-3.8,10.4-8.2,14.8-13C363.6,369.6,347,428.2,347,428.2z"></path>
		<path class="st1" d="M185.9,206.9c-2.5,3.5-4.6,7.3-6.6,11.1c-2.9,5.8-5.1,11.8-6.6,18.2C105,209.4,90,149.6,90,149.6
			c5.9-10.2,13.4-19.6,22.4-27.7c5.5-5,11.6-9.7,18.1-13.7c3.8-2.3,8.6,0.2,8.9,4.6C142.2,156.7,162.9,186.9,185.9,206.9z"></path>
		<path class="st1" d="M421.6,359.3c-5.8,10.2-13.4,19.6-22.3,27.7c-5.6,5.1-11.6,9.7-18.1,13.7c-3.8,2.3-8.6-0.2-9-4.6
			c-2.7-43.2-22.9-73.1-45.4-93.1c2.4-3.6,4.6-7.4,6.4-11.4c2.8-5.9,4.9-12.1,6.2-18.6C406.7,299.8,421.6,359.3,421.6,359.3z"></path>
		<path class="st1" d="M174,280.3c-71.6,10.2-114.3-33.7-114.3-33.7c0-11.7,1.9-23.7,5.5-35.2c2.2-7.2,5.2-14.1,8.8-20.9
			c2.1-3.9,7.6-4.2,10-0.6c24.3,36.4,57.1,52.1,86.8,58.1c-0.3,2.6-0.4,5.1-0.4,7.7c0,1.8,0.1,3.5,0.2,5.3
			C171,267.7,172.2,274.2,174,280.3z"></path>
		<path class="st1" d="M451.8,262.3c0,11.8-1.8,23.7-5.5,35.2c-2.2,7.1-5.2,14.1-8.8,20.9c-2.1,3.8-7.5,4.2-10,0.5
			c-24.2-36.3-56.9-52-86.5-58.1c0.1-1.7,0.2-3.4,0.2-5c0-2.7-0.2-5.4-0.4-8c-0.6-6.6-2-13-4-19.1
			C408.9,218,451.8,262.3,451.8,262.3z"></path>
		<path class="st1" d="M197.5,318c-56.7,44.3-115.3,27.7-115.3,27.7c-5.9-10.2-10.2-21.5-12.9-33.3c-1.6-7.4-2.6-14.9-2.8-22.5
			c-0.2-4.3,4.5-7.4,8.4-5.4c38.9,19.3,75,16.6,103.6,7.1c1.8,4,3.9,7.8,6.4,11.4C188.4,308.5,192.7,313.6,197.5,318z"></path>
		<path class="st1" d="M445.2,219c0.1,4.4-4.5,7.4-8.4,5.4c-39.4-19.5-75.9-16.5-104.6-6.9c-1.9-3.8-4.2-7.5-6.6-11
			c-3.8-5.3-8.1-10.2-12.9-14.5c57.2-45.8,116.9-28.8,116.9-28.8c5.9,10.2,10.2,21.4,12.9,33.2C444,203.8,444.9,211.4,445.2,219z"></path>
		<path class="st1" d="M236.9,339c-27,66.5-86,81.3-86,81.3c-10.2-5.8-19.6-13.4-27.7-22.4c-5-5.5-9.7-11.5-13.7-18.1
			c-2.3-3.7,0.2-8.6,4.6-8.9c43.1-2.7,72.9-22.8,92.9-45.2c3.6,2.5,7.4,4.7,11.4,6.6C224.2,335.3,230.5,337.5,236.9,339z"></path>
		<path class="st1" d="M397.5,138c-44.2,2.9-74.3,23.8-94.3,46.9c-3.6-2.5-7.4-4.6-11.3-6.4c-5.8-2.7-11.8-4.8-18.1-6.2
			c26.5-68.5,86.8-83.7,86.8-83.7c10.2,5.9,19.6,13.4,27.7,22.4c5.1,5.5,9.7,11.6,13.7,18.1C404.3,132.8,401.8,137.7,397.5,138z"></path>
	</g>
	<g>
		<path class="st2" d="M320.2,82.7c-36.9,24.6-52.5,57.9-58.4,87.9c-2-0.2-4-0.2-6.1-0.2c-2.2,0-4.5,0.1-6.7,0.3
			c2.1-62.7,39.3-98,49.8-106.8c7.1,2.2,14.2,5.2,20.9,8.8C323.6,74.8,323.9,80.3,320.2,82.7z"></path>
		<path class="st2" d="M262.3,340.9c-3,61-39.3,95.5-49.6,104.1c-7.2-2.2-14.1-5.2-20.9-8.8c-3.9-2.1-4.2-7.5-0.6-10
			c35.9-23.9,51.6-56,57.9-85.4c2.2,0.2,4.4,0.3,6.6,0.3C258,341.1,260.1,341.1,262.3,340.9z"></path>
		<path class="st2" d="M225.8,73.5c-19.6,39.6-16.5,76.3-6.6,105.2c-3.9,1.8-7.7,3.9-11.2,6.3c-29.4-55.2-14.8-104.4-10.2-117.1
			c7.3-1.6,14.9-2.6,22.5-2.8C224.7,65,227.7,69.5,225.8,73.5z"></path>
		<path class="st2" d="M313.8,441c-7.4,1.7-14.9,2.6-22.5,2.9c-4.4,0.1-7.4-4.5-5.4-8.4c19.1-38.7,16.7-74.4,7.4-102.9
			c4-1.9,7.8-4.2,11.4-6.7C332.7,380.1,318.4,428.4,313.8,441z"></path>
		<path class="st2" d="M185.9,206.9c-2.5,3.5-4.6,7.3-6.6,11.1c-52.7-33-64.7-82.7-67-96.1c5.5-5,11.6-9.7,18.1-13.7
			c3.8-2.3,8.6,0.2,8.9,4.6C142.2,156.7,162.9,186.9,185.9,206.9z"></path>
		<path class="st2" d="M399.3,387c-5.6,5.1-11.6,9.7-18.1,13.7c-3.8,2.3-8.6-0.2-9-4.6c-2.7-43.2-22.9-73.1-45.4-93.1
			c2.4-3.6,4.6-7.4,6.4-11.4C385.1,324.7,397,373.8,399.3,387z"></path>
		<path class="st2" d="M170.4,255.8c0,1.8,0.1,3.5,0.2,5.3c-61.7-2.6-96.7-39.3-105.3-49.6c2.2-7.2,5.2-14.1,8.8-20.9
			c2.1-3.9,7.6-4.2,10-0.6c24.3,36.4,57.1,52.1,86.8,58.1C170.5,250.7,170.4,253.2,170.4,255.8z"></path>
		<path class="st2" d="M446.3,297.6c-2.2,7.1-5.2,14.1-8.8,20.9c-2.1,3.8-7.5,4.2-10,0.5c-24.2-36.3-56.9-52-86.5-58.1
			c0.1-1.7,0.2-3.4,0.2-5c0-2.7-0.2-5.4-0.4-8C402.6,250.3,437.7,287.2,446.3,297.6z"></path>
		<path class="st2" d="M184.8,303.1c-54.5,28.3-103,14-115.6,9.4c-1.6-7.4-2.6-14.9-2.8-22.5c-0.2-4.3,4.5-7.4,8.4-5.4
			c38.9,19.3,75,16.6,103.6,7.1C180.2,295.7,182.4,299.5,184.8,303.1z"></path>
		<path class="st2" d="M445.2,219c0.1,4.4-4.5,7.4-8.4,5.4c-39.4-19.5-75.9-16.5-104.6-6.9c-1.9-3.8-4.2-7.5-6.6-11
			c55.1-29.3,104.1-14.6,116.9-10C444,203.8,444.9,211.4,445.2,219z"></path>
		<path class="st2" d="M218.3,332.4c-33,51.5-81.8,63.2-95.1,65.5c-5-5.5-9.7-11.5-13.7-18.1c-2.3-3.7,0.2-8.6,4.6-8.9
			c43.1-2.7,72.9-22.8,92.9-45.2C210.6,328.3,214.3,330.5,218.3,332.4z"></path>
		<path class="st2" d="M397.5,138c-44.2,2.9-74.3,23.8-94.3,46.9c-3.6-2.5-7.4-4.6-11.3-6.4c33.1-53.2,83-65.1,96.4-67.5
			c5.1,5.5,9.7,11.6,13.7,18.1C404.3,132.8,401.8,137.7,397.5,138z"></path>
	</g>
	<path class="st3" d="M511.9,249.2c0-1.6-0.1-3.3-0.2-4.9c0-0.5-0.1-1.1-0.1-1.7c-0.1-2.2-0.2-4.4-0.4-6.6
		c-0.6-8.6-1.7-17.1-3.3-25.5c-0.7-4.2-1.6-8.3-2.6-12.5c-0.2-1-0.5-2.1-0.7-3.1c-0.3-1-0.5-2.1-0.8-3.1c-1.1-4.4-2.4-8.8-3.8-13.1
		c-0.2-0.7-0.4-1.4-0.7-2c-0.3-0.9-0.6-1.7-0.9-2.6c-0.3-0.8-0.6-1.6-0.8-2.5c-0.4-1.3-0.9-2.6-1.4-3.9c-1.4-3.9-3-7.8-4.6-11.6
		c-1.8-4.4-3.8-8.6-5.9-12.9c-0.7-1.4-1.4-2.8-2.1-4.2c-0.6-1.3-1.3-2.6-2-3.8c-1.3-2.4-2.6-4.7-3.9-7c-0.5-0.8-1-1.7-1.4-2.5
		c-0.6-1-1.2-2-1.8-3c-0.3-0.5-0.6-1-0.9-1.5l14.7-14.7l8.2-71.1c1.3-11.7-8.5-21.6-20.2-20.2l-71.1,8.2l-14.7,14.7
		c-0.2-0.2-0.5-0.3-0.7-0.5c-0.1-0.1-0.2-0.1-0.2-0.2c-0.2-0.1-0.3-0.2-0.5-0.3c-1-0.6-2-1.2-3-1.8c-0.8-0.5-1.7-1-2.5-1.5
		c-0.2-0.1-0.4-0.2-0.6-0.3c-0.8-0.4-1.5-0.9-2.3-1.3c-0.9-0.5-1.8-1-2.7-1.5c-0.7-0.4-1.4-0.7-2.1-1.1c-1.1-0.6-2.1-1.1-3.2-1.7
		c-1.2-0.6-2.4-1.2-3.6-1.8c-0.4-0.2-0.8-0.4-1.2-0.6c-2.6-1.3-5.2-2.5-7.9-3.7c-1.4-0.6-2.9-1.3-4.3-1.9c0,0,0,0,0,0
		c-2.9-1.2-5.8-2.4-8.7-3.5c-1-0.4-1.9-0.7-2.9-1.1c-2-0.7-3.9-1.4-5.9-2.1c-1-0.3-2-0.7-3-1c-2-0.7-4-1.3-6-1.9c-1-0.3-2-0.6-3-0.9
		c-1-0.3-2-0.6-3-0.8c-1-0.3-2-0.5-3.1-0.8c-14.5-3.7-29.2-6.2-44.2-7.3c-1.1-0.1-2.2-0.2-3.3-0.2c-1.8-0.1-3.6-0.2-5.5-0.3
		c-0.4,0-0.8,0-1.2-0.1c-3.2-0.1-6.5-0.2-9.7-0.2c-3.3,0-6.5,0.1-9.7,0.2c-0.4,0-0.8,0-1.3,0.1c-1.7,0.1-3.4,0.2-5.2,0.3
		c-0.1,0-0.2,0-0.3,0c-1.1,0.1-2.2,0.1-3.3,0.2c-3.2,0.2-6.5,0.6-9.7,0.9c-11.7,1.3-23.2,3.4-34.6,6.4c-1,0.3-2,0.5-3.1,0.8
		c-1,0.3-2,0.6-3,0.8c-1,0.3-2,0.6-3,0.9c-2,0.6-4,1.2-6,1.9c-1,0.3-2,0.6-3,1c-2,0.7-3.9,1.4-5.9,2.1c-1,0.4-2,0.7-2.9,1.1
		c-2.9,1.1-5.8,2.3-8.7,3.5c0,0,0,0,0,0c-1.4,0.6-2.9,1.2-4.3,1.9c-1.4,0.6-2.8,1.3-4.2,1.9c0,0-0.1,0-0.1,0.1
		c-1.3,0.6-2.6,1.2-3.9,1.9c-0.2,0.1-0.4,0.2-0.6,0.3c-1.2,0.6-2.5,1.2-3.7,1.8c-0.3,0.2-0.6,0.3-1,0.5c-0.9,0.4-1.7,0.9-2.6,1.4
		c-0.5,0.3-1.1,0.6-1.6,0.9c-2.1,1.1-4.2,2.3-6.3,3.5c-0.7,0.4-1.3,0.8-2,1.2c-1.3,0.7-2.6,1.5-3.8,2.3c-0.2,0.2-0.5,0.3-0.7,0.5
		l-14.7-14.7L36,15.3c-11.7-1.4-21.6,8.5-20.2,20.2l8.2,71.1l14.7,14.7c-0.3,0.5-0.6,1-0.9,1.5c-2.2,3.6-4.4,7.4-6.4,11.1
		c-0.4,0.7-0.8,1.4-1.1,2.1c-0.4,0.8-0.8,1.5-1.2,2.3c-0.2,0.4-0.4,0.8-0.6,1.2c-0.5,1.1-1.1,2.1-1.6,3.2c-0.2,0.4-0.4,0.9-0.6,1.3
		c-1.2,2.6-2.4,5.1-3.6,7.7c-0.1,0.1-0.1,0.2-0.1,0.3c-0.6,1.4-1.2,2.8-1.8,4.2c-0.5,1.1-0.9,2.3-1.4,3.4c-0.7,1.8-1.4,3.5-2.1,5.3
		c-0.4,1-0.7,1.9-1.1,2.9c-0.7,2-1.4,3.9-2.1,5.9c-0.3,1-0.7,2-1,3c-0.2,0.7-0.4,1.4-0.6,2c-1.4,4.3-2.6,8.7-3.8,13.1
		c-0.3,1-0.5,2-0.8,3.1c-0.2,1-0.5,2.1-0.7,3.1c-1,4.1-1.8,8.3-2.6,12.5c-1.5,8.4-2.6,17-3.3,25.5c-0.2,2.2-0.3,4.4-0.4,6.6
		c0,0.5-0.1,1.1-0.1,1.7c-0.1,1.6-0.1,3.3-0.2,4.9c-0.1,2.2-0.1,4.4-0.1,6.6s0,4.4,0.1,6.6c0,1.7,0.1,3.3,0.2,5c0,0.5,0,1.1,0.1,1.6
		c0.1,2.2,0.2,4.4,0.4,6.6c0.6,8.6,1.7,17.1,3.3,25.5c0.2,1,0.4,2.1,0.6,3.1c0.2,1,0.4,2.1,0.6,3.1c0.2,1,0.4,2.1,0.7,3.1
		c0.2,1,0.5,2.1,0.7,3.1c0.2,1,0.5,2.1,0.7,3.1c1.2,5,2.6,9.9,4.1,14.7c0.2,0.7,0.5,1.5,0.7,2.2c0.5,1.5,1,3,1.5,4.5
		c0.3,0.9,0.6,1.8,0.9,2.7c0.7,1.9,1.4,3.8,2.1,5.6c0.8,2,1.5,4,2.3,6c0,0,0,0.1,0,0.1c0.4,1,0.8,1.9,1.2,2.9
		c0.6,1.5,1.2,2.9,1.9,4.3c0.6,1.4,1.3,2.8,1.9,4.2c0,0,0,0.1,0,0.1c0.6,1.3,1.2,2.6,1.9,3.9c0.1,0.2,0.2,0.4,0.3,0.6
		c0.5,0.9,0.9,1.9,1.4,2.8c0.2,0.3,0.3,0.6,0.5,0.9c0.2,0.5,0.5,0.9,0.7,1.4c0.4,0.7,0.7,1.4,1.1,2.2c0.3,0.5,0.6,1.1,0.9,1.6
		c0.5,1,1.1,2,1.6,3c0.5,0.9,1,1.8,1.5,2.7c0.5,0.9,1,1.8,1.6,2.7c0.5,0.9,1,1.8,1.6,2.6c0.1,0.1,0.1,0.3,0.2,0.4
		c0.2,0.2,0.3,0.5,0.5,0.7c0.1,0.2,0.3,0.5,0.5,0.7l-14.7,14.7L15.7,476c-1.4,11.7,8.5,21.6,20.2,20.2l71.1-8.2l14.7-14.7l0,0
		c0.5,0.3,1,0.6,1.5,0.9c1.3,0.8,2.7,1.6,4,2.4c1.3,0.8,2.7,1.6,4.1,2.3c0.1,0.1,0.2,0.1,0.3,0.2c1.3,0.7,2.5,1.4,3.8,2.1
		c6.9,3.7,14,7.1,21.2,10.2c5.9,2.5,11.9,4.8,18,6.8c1,0.3,2,0.7,3,1c1,0.3,2,0.6,3,1c3.8,1.2,7.7,2.3,11.6,3.3c1,0.3,2,0.5,3.1,0.8
		c1,0.2,2.1,0.5,3.1,0.7c2.1,0.5,4.1,0.9,6.2,1.4c1,0.2,2.1,0.4,3.1,0.6c1,0.2,2.1,0.4,3.1,0.6c1,0.2,2.1,0.4,3.2,0.5
		c1,0.2,2.1,0.3,3.2,0.5c0.9,0.1,1.9,0.3,2.8,0.4c7.6,1.1,15.2,1.8,23,2.2c0.5,0,1.1,0.1,1.6,0.1c1.7,0.1,3.3,0.1,5,0.2
		c2.2,0.1,4.4,0.1,6.6,0.1c2.2,0,4.4,0,6.6-0.1c1.6,0,3.3-0.1,4.9-0.2c0.5,0,1.1-0.1,1.7-0.1c7.8-0.4,15.4-1.1,23-2.2
		c0.9-0.1,1.9-0.3,2.8-0.4c2.1-0.3,4.2-0.7,6.3-1c1-0.2,2.1-0.4,3.1-0.6c1-0.2,2.1-0.4,3.1-0.6c2.1-0.4,4.1-0.9,6.2-1.4
		c1-0.2,2.1-0.5,3.1-0.7c1-0.3,2.1-0.5,3.1-0.8c3.9-1,7.8-2.1,11.6-3.3c1-0.3,2-0.6,3-1c1-0.3,2-0.7,3-1c6-2,12-4.3,18-6.8
		c7.1-3,14.1-6.4,20.9-10c1.5-0.8,3-1.6,4.4-2.4c1.3-0.7,2.5-1.4,3.8-2.1c0.2-0.1,0.4-0.2,0.6-0.3c1.3-0.7,2.5-1.5,3.8-2.3
		c0.5-0.3,1-0.6,1.5-0.9l0,0l14.7,14.7l71.1,8.2c11.7,1.4,21.6-8.5,20.2-20.2l-8.2-71.1l-14.7-14.7c0.2-0.2,0.3-0.5,0.5-0.7
		c0.2-0.2,0.3-0.5,0.5-0.7c0.1-0.1,0.2-0.3,0.2-0.4c0.6-1,1.2-2,1.8-2.9c0.4-0.7,0.9-1.5,1.3-2.2c0.1-0.1,0.2-0.3,0.2-0.4
		c0.8-1.4,1.6-2.8,2.4-4.2c0.4-0.8,0.9-1.6,1.3-2.4c0.7-1.3,1.3-2.6,2-3.8c0-0.1,0.1-0.1,0.1-0.2c0.7-1.3,1.3-2.7,2-4
		c2.1-4.2,4-8.5,5.9-12.9c1.7-3.9,3.2-7.9,4.7-11.9c0.4-1,0.7-2,1.1-3c0.4-1,0.7-2,1-3c0.4-1.3,0.9-2.6,1.3-3.8
		c0.2-0.7,0.5-1.5,0.7-2.2c1.5-4.8,2.9-9.7,4.1-14.7c0.2-1,0.5-2.1,0.7-3.1c0.2-1,0.5-2.1,0.7-3.1c0.2-1,0.4-2.1,0.7-3.1
		c0.2-1,0.4-2.1,0.6-3.1c0.2-1,0.4-2.1,0.6-3.1c1.5-8.4,2.6-17,3.3-25.5c0.2-2.2,0.3-4.4,0.4-6.6c0-0.5,0.1-1.1,0.1-1.6
		c0.1-1.7,0.1-3.3,0.2-5c0.1-2.2,0.1-4.4,0.1-6.6S512,251.4,511.9,249.2z M151.2,70.3c31-17.6,66.8-27.6,105-27.6
		c38.2,0,74,10,105,27.6c27.6,15.7,51.3,37.4,69.5,63.3L320.5,244.1c-5.2-29.6-30-52.4-60.6-54.6L144.6,74.4
		C146.8,73,149,71.6,151.2,70.3z M134.2,81.2l109.3,109.1c-31.1,5.5-54.7,32.4-54.9,65l-113,113.3c-1.6-2.6-3.3-5.1-4.7-7.8
		c-17.6-31-27.6-66.8-27.6-105c0-38.2,10-74,27.6-105C86.5,123.1,108.2,99.4,134.2,81.2z M47.5,47c6.8-6.8,17.9-6.8,24.7,0
		c6.8,6.8,6.8,17.9,0,24.7c-6.8,6.8-17.9,6.8-24.7,0C40.6,64.9,40.6,53.8,47.5,47z M72.2,464.5c-6.8,6.8-17.9,6.8-24.7,0
		c-6.8-6.8-6.8-17.9,0-24.7c6.8-6.8,17.9-6.8,24.7,0C79,446.7,79,457.7,72.2,464.5z M361.2,441.2c-31,17.6-66.8,27.6-105,27.6
		c-38.2,0-74-10-105-27.6c-27.3-15.5-50.7-36.9-68.8-62.4l107.9-108.1c6.8,29.3,32.8,51.2,64.1,51.5l114.5,114.3
		C366.3,438.1,363.8,439.7,361.2,441.2z M379.2,429.6L269.9,320.6c28.1-6.4,49.3-30.6,51.4-60.1l116.2-116.5
		c1.4,2.2,2.8,4.4,4.1,6.7c17.6,31,27.6,66.8,27.6,105c0,38.2-10,74-27.6,105c-9.5,16.8-21.2,32.1-34.8,45.7
		C398.4,415,389.1,422.7,379.2,429.6z M465,464.5c-6.8,6.8-17.9,6.8-24.7,0c-6.8-6.8-6.8-17.9,0-24.7c6.8-6.8,17.9-6.8,24.7,0
		C471.8,446.7,471.8,457.7,465,464.5z M465,71.7c-6.8,6.8-17.9,6.8-24.7,0c-6.8-6.8-6.8-17.9,0-24.7c6.8-6.8,17.9-6.8,24.7,0
		C471.8,53.8,471.8,64.9,465,71.7z"></path>
	<path class="st4" d="M511.5,249.2c0-1.6-0.1-3.3-0.2-4.9c0-0.5-0.1-1.1-0.1-1.7c-0.1-2.2-0.2-4.4-0.4-6.6
		c-0.7-8.6-1.8-17.2-3.3-25.5c-0.8-4.2-1.6-8.4-2.6-12.5c-0.2-1-0.5-2.1-0.7-3.1c-0.3-1-0.5-2.1-0.8-3.1c-1.1-4.4-2.4-8.8-3.8-13.1
		c-0.2-0.7-0.4-1.4-0.7-2c-0.3-0.9-0.6-1.7-0.9-2.6c-0.3-0.8-0.6-1.6-0.8-2.5c-0.4-1.3-0.9-2.6-1.4-3.9c-1.4-3.9-2.9-7.7-4.5-11.5
		c0,0,0-0.1-0.1-0.1c0,0,0,0,0,0c-1.8-4.3-3.8-8.6-5.9-12.9c-0.7-1.4-1.4-2.8-2.1-4.2c-0.7-1.3-1.3-2.6-2-3.8
		c-1.3-2.4-2.6-4.7-3.9-7c-0.5-0.8-1-1.7-1.4-2.5c-0.9-1.5-1.8-3-2.7-4.5c-20.9-33.7-49.4-62.2-83.1-83.1c-0.2-0.1-0.5-0.3-0.7-0.4
		c-0.1-0.1-0.2-0.1-0.2-0.2c-0.2-0.1-0.3-0.2-0.5-0.3c-1-0.6-2-1.2-3-1.8c-0.8-0.5-1.7-1-2.5-1.5c-0.2-0.1-0.4-0.2-0.6-0.3
		c-0.8-0.4-1.5-0.9-2.3-1.3c-0.9-0.5-1.8-1-2.7-1.5c-0.7-0.4-1.4-0.7-2.1-1.1c-1.1-0.6-2.1-1.1-3.2-1.7c-1.2-0.6-2.4-1.2-3.6-1.8
		c-0.4-0.2-0.8-0.4-1.2-0.6c-2.6-1.3-5.2-2.5-7.9-3.7c-1.4-0.6-2.9-1.3-4.3-1.9c0,0,0,0,0,0c-2.9-1.2-5.8-2.4-8.7-3.5
		c-1-0.4-1.9-0.7-2.9-1.1c-2-0.7-3.9-1.4-5.9-2.1c-1-0.3-2-0.7-3-1c-2-0.7-4-1.3-6-1.9c-1-0.3-2-0.6-3-0.9c-1-0.3-2-0.6-3-0.8
		c-1-0.3-2-0.5-3.1-0.8c-14.3-3.7-29.1-6.2-44.2-7.3c-1.1-0.1-2.2-0.2-3.3-0.2c-1.8-0.1-3.6-0.2-5.5-0.3c-0.4,0-0.8,0-1.2-0.1
		C262.3,0.1,259,0,255.8,0c-3.3,0-6.5,0.1-9.7,0.2c-0.4,0-0.8,0-1.3,0.1c-1.7,0.1-3.4,0.2-5.2,0.3c-0.1,0-0.2,0-0.3,0
		c-1.1,0.1-2.2,0.1-3.3,0.2c-3.2,0.3-6.5,0.6-9.7,0.9c-11.8,1.4-23.3,3.5-34.6,6.4c-1,0.3-2,0.5-3.1,0.8c-1,0.3-2,0.6-3,0.8
		c-1,0.3-2,0.6-3,0.9c-2,0.6-4,1.2-6,1.9c-1,0.3-2,0.7-3,1c-2,0.7-3.9,1.4-5.9,2.1c-1,0.4-2,0.7-2.9,1.1c-2.9,1.1-5.8,2.3-8.7,3.5
		c0,0,0,0,0,0c-1.4,0.6-2.9,1.2-4.3,1.9c-1.4,0.6-2.8,1.3-4.2,1.9c0,0-0.1,0-0.1,0.1c-1.3,0.6-2.6,1.2-3.9,1.9
		c-0.2,0.1-0.4,0.2-0.6,0.3c-1.2,0.6-2.5,1.2-3.7,1.8c-0.3,0.2-0.7,0.3-1,0.5c-0.9,0.4-1.7,0.9-2.6,1.4c-0.5,0.3-1.1,0.6-1.6,0.9
		c-2.1,1.1-4.2,2.3-6.3,3.5c-0.7,0.4-1.3,0.8-2,1.2c-1.3,0.8-2.6,1.5-3.8,2.3c-0.2,0.2-0.5,0.3-0.7,0.4
		c-33.7,20.9-62.2,49.4-83.1,83.1c-2.6,4.1-5,8.3-7.3,12.6c-0.4,0.7-0.8,1.4-1.1,2.1c-0.4,0.8-0.8,1.5-1.2,2.3
		c-0.2,0.4-0.4,0.8-0.6,1.2c-0.5,1.1-1.1,2.1-1.6,3.2c-0.2,0.4-0.4,0.9-0.6,1.3c-1.3,2.6-2.5,5.1-3.6,7.7c-0.1,0.1-0.1,0.2-0.1,0.3
		c-0.6,1.4-1.2,2.8-1.8,4.2c-0.5,1.1-0.9,2.3-1.4,3.4c-0.7,1.8-1.4,3.5-2.1,5.3c-0.4,1-0.7,1.9-1.1,2.9c-0.7,2-1.4,3.9-2.1,5.9
		c-0.3,1-0.7,2-1,3c-0.2,0.7-0.4,1.4-0.7,2c-1.4,4.3-2.6,8.7-3.8,13.1c-0.3,1-0.5,2-0.8,3.1c-0.2,1-0.5,2.1-0.7,3.1
		c-0.9,4.1-1.8,8.3-2.6,12.5c-1.5,8.4-2.6,16.9-3.3,25.5c-0.2,2.2-0.3,4.4-0.4,6.6c0,0.5-0.1,1.1-0.1,1.7c-0.1,1.6-0.1,3.3-0.2,4.9
		C0,251.4,0,253.6,0,255.8c0,2.2,0,4.4,0.1,6.6c0,1.7,0.1,3.3,0.2,5c0,0.5,0,1.1,0.1,1.6c0.1,2.2,0.2,4.4,0.4,6.6
		c0.7,8.6,1.8,17.2,3.3,25.5c0.2,1,0.4,2.1,0.6,3.1c0.2,1,0.4,2.1,0.6,3.1c0.2,1,0.4,2.1,0.7,3.1c0.2,1,0.5,2.1,0.7,3.1
		c0.2,1,0.5,2.1,0.7,3.1c1.2,5,2.6,9.9,4.1,14.7c0.2,0.7,0.5,1.5,0.7,2.2c0.5,1.5,1,3,1.5,4.5c0.3,0.9,0.6,1.8,0.9,2.7
		c0.7,1.9,1.4,3.8,2.1,5.6c0.8,2,1.5,4,2.3,6c0,0,0,0.1,0,0.1c0.4,1,0.8,1.9,1.2,2.9c0,0,0,0.1,0,0.1c0.6,1.4,1.2,2.8,1.8,4.2
		c0.6,1.4,1.3,2.8,1.9,4.2c0,0,0,0.1,0.1,0.1c0.6,1.3,1.2,2.6,1.9,3.9c0.1,0.2,0.2,0.4,0.3,0.6c0.5,0.9,0.9,1.9,1.4,2.8
		c0.2,0.3,0.3,0.6,0.5,0.9c0.2,0.5,0.5,0.9,0.7,1.4c0.4,0.7,0.7,1.4,1.1,2.2c0.3,0.5,0.6,1.1,0.9,1.6c0.5,1,1.1,2,1.6,3
		c0.5,0.9,1,1.8,1.5,2.7c0.5,0.9,1,1.8,1.6,2.7c0.5,0.9,1,1.8,1.6,2.6c0.2,0.4,0.4,0.7,0.7,1.1c0.1,0.2,0.3,0.5,0.5,0.7
		c20.9,33.7,49.4,62.2,83.1,83.1c0.5,0.3,1,0.6,1.5,0.9c1.3,0.8,2.7,1.6,4,2.4c1.3,0.8,2.7,1.6,4.1,2.3c0.1,0.1,0.2,0.1,0.3,0.2
		c1.3,0.7,2.5,1.4,3.8,2.1c12.5,6.7,25.6,12.4,39.2,17c1,0.3,2,0.7,3,1c1,0.3,2,0.7,3,1c3.8,1.2,7.7,2.3,11.6,3.3
		c1,0.3,2,0.5,3.1,0.8c1,0.2,2.1,0.5,3.1,0.7c2.1,0.5,4.1,0.9,6.2,1.4c1,0.2,2.1,0.4,3.1,0.6c1,0.2,2.1,0.4,3.1,0.6
		c1,0.2,2.1,0.4,3.2,0.5c1,0.2,2.1,0.3,3.2,0.5c0.9,0.1,1.9,0.3,2.8,0.4c7.6,1.1,15.2,1.8,23,2.2c0.5,0,1.1,0.1,1.6,0.1
		c1.7,0.1,3.3,0.1,5,0.2c2.2,0.1,4.4,0.1,6.6,0.1c2.2,0,4.4,0,6.6-0.1c1.6,0,3.3-0.1,4.9-0.2c0.5,0,1.1-0.1,1.7-0.1
		c7.8-0.4,15.4-1.1,23-2.2c0.9-0.1,1.9-0.3,2.8-0.4c2.1-0.3,4.2-0.7,6.3-1c1-0.2,2.1-0.4,3.1-0.6c1-0.2,2.1-0.4,3.1-0.6
		c2.1-0.4,4.1-0.9,6.2-1.4c1-0.2,2.1-0.5,3.1-0.7c1-0.3,2.1-0.5,3.1-0.8c3.9-1,7.8-2.1,11.6-3.3c1-0.3,2-0.6,3-1c1-0.3,2-0.7,3-1
		c13.5-4.5,26.5-10.2,38.9-16.8c1.5-0.8,3-1.6,4.4-2.4c1.3-0.7,2.5-1.4,3.8-2.1c0.2-0.1,0.4-0.2,0.6-0.3c1.3-0.7,2.5-1.5,3.8-2.3
		c0.5-0.3,1-0.6,1.5-0.9c33.7-20.9,62.2-49.4,83.1-83.1c0.2-0.2,0.3-0.5,0.5-0.7c0.2-0.4,0.5-0.7,0.7-1.1c0.6-1,1.2-2,1.8-2.9
		c0.4-0.7,0.9-1.5,1.3-2.2c0.1-0.1,0.2-0.3,0.2-0.4c0.8-1.4,1.6-2.8,2.4-4.2c0.4-0.8,0.9-1.6,1.3-2.4c0.7-1.3,1.3-2.6,2-3.8
		c0-0.1,0.1-0.1,0.1-0.2c0.7-1.3,1.3-2.7,2-4c1-2.1,2-4.2,3-6.4c0,0,0-0.1,0-0.1c2.7-6,5.2-12.1,7.5-18.3c0.4-1,0.7-2,1.1-3
		c0.4-1,0.7-2,1-3c0.4-1.3,0.9-2.6,1.3-3.8c0.2-0.7,0.5-1.5,0.7-2.2c1.5-4.8,2.9-9.7,4.1-14.7c0.2-1,0.5-2.1,0.7-3.1
		c0.2-1,0.5-2.1,0.7-3.1c0.2-1,0.4-2.1,0.7-3.1c0.2-1,0.4-2.1,0.6-3.1c0.2-1,0.4-2.1,0.6-3.1c1.5-8.4,2.6-16.9,3.3-25.5
		c0.2-2.2,0.3-4.4,0.4-6.6c0-0.5,0.1-1.1,0.1-1.6c0.1-1.7,0.1-3.3,0.2-5c0.1-2.2,0.1-4.4,0.1-6.6
		C511.5,253.6,511.5,251.4,511.5,249.2z M441.2,360.8c-9.5,16.8-21.2,32.1-34.8,45.7c-13.5,13.5-28.9,25.3-45.7,34.8
		c-31,17.6-66.8,27.6-105,27.6c-38.2,0-74-10-105-27.6c-33.5-19-61.4-46.9-80.4-80.4c-17.6-31-27.6-66.8-27.6-105
		c0-38.2,10-74,27.6-105c19-33.5,46.9-61.4,80.4-80.4c31-17.6,66.8-27.6,105-27.6s74,10,105,27.6c33.5,19,61.4,46.9,80.4,80.4
		c17.6,31,27.6,66.8,27.6,105C468.9,294,458.8,329.8,441.2,360.8z"></path>
	<path class="st5" d="M255.8,333.2c-42.7,0-77.4-34.7-77.4-77.4c0-42.7,34.7-77.4,77.4-77.4s77.4,34.7,77.4,77.4
		C333.2,298.4,298.4,333.2,255.8,333.2z" style="fill: rgb(9, 9, 9);"></path>
	<path class="st6" d="M255.8,186.4c38.3,0,69.4,31.1,69.4,69.4c0,38.3-31.1,69.4-69.4,69.4c-38.3,0-69.4-31.1-69.4-69.4
		C186.4,217.4,217.4,186.4,255.8,186.4 M255.8,170.4c-47.1,0-85.4,38.3-85.4,85.4c0,47.1,38.3,85.4,85.4,85.4
		c47.1,0,85.4-38.3,85.4-85.4C341.2,208.7,302.9,170.4,255.8,170.4L255.8,170.4z"></path>
	<path class="st7" d="M302.8,255.8h-94.1c0-26,21.1-47,47-47C281.8,208.7,302.8,229.8,302.8,255.8z"></path>
</g>
</svg>
